<svg data-v-423bf9ae="" xmlns="http://www.w3.org/2000/svg" viewBox="0 0 428.2725634265168 60" class="font"><!----><!----><!----><g data-v-423bf9ae="" id="1e2cc0fd-e7db-4931-95b7-563ed00b97aa" fill="black" transform="matrix(4.7543578454821,0,0,4.7543578454821,-4.849447041990658,-20.491282518818466)"><path d="M2.55 12.64L2.55 4.31L1.02 4.31L1.02 14L7.34 14L7.34 12.64ZM15.08 10.57C15.06 8.48 13.54 6.99 11.41 6.99C9.28 6.99 7.73 8.48 7.73 10.56C7.73 12.63 9.28 14.13 11.41 14.13C13.10 14.13 14.57 13.03 14.97 11.51L13.51 11.51C13.24 12.33 12.40 12.95 11.42 12.95C10.23 12.95 9.32 12.15 9.14 11.00L15.04 11.00C15.06 10.86 15.08 10.71 15.08 10.57ZM11.42 8.16C12.56 8.16 13.47 8.88 13.71 9.90L9.18 9.90C9.44 8.86 10.30 8.16 11.42 8.16ZM21.90 7.11L21.90 8.09C21.29 7.41 20.41 6.99 19.38 6.99C17.43 6.99 16.02 8.43 16.02 10.40C16.02 12.39 17.43 13.83 19.38 13.83C20.41 13.83 21.29 13.41 21.90 12.73L21.90 13.64C21.90 14.87 20.97 15.78 19.71 15.78C18.79 15.78 17.92 15.23 17.68 14.49L16.34 14.48C16.63 15.90 18.07 16.93 19.77 16.93C21.84 16.93 23.32 15.51 23.32 13.55L23.32 7.11ZM19.68 12.73C18.41 12.73 17.49 11.76 17.49 10.42C17.49 9.06 18.41 8.09 19.68 8.09C20.97 8.09 21.90 9.06 21.90 10.42C21.90 11.76 20.97 12.73 19.68 12.73ZM30.56 7.11L30.56 8.11C29.96 7.41 29.08 6.99 28.06 6.99C26.11 6.99 24.68 8.48 24.68 10.56C24.68 12.63 26.11 14.13 28.06 14.13C29.08 14.13 29.96 13.71 30.56 13.01L30.56 14L31.99 14L31.99 7.11ZM28.35 12.88C27.08 12.88 26.15 11.91 26.15 10.56C26.15 9.21 27.08 8.23 28.35 8.23C29.64 8.23 30.56 9.21 30.56 10.56C30.56 11.91 29.64 12.88 28.35 12.88ZM40.61 11.14L39.17 11.14C38.96 12.15 38.11 12.88 37.03 12.88C35.74 12.88 34.82 11.91 34.82 10.56C34.82 9.21 35.74 8.23 37.03 8.23C38.09 8.23 38.96 8.97 39.16 9.97L40.61 9.97C40.40 8.25 38.91 6.99 37.03 6.99C34.90 6.99 33.35 8.48 33.35 10.56C33.35 12.63 34.90 14.13 37.03 14.13C38.91 14.13 40.40 12.88 40.61 11.14ZM46.75 7.11L44.62 11.80L42.46 7.11L40.94 7.11L43.95 13.23L42.15 16.76L43.67 16.76L48.24 7.11ZM54.77 12.64L54.77 4.31L53.24 4.31L53.24 14L59.56 14L59.56 12.64ZM65.83 7.11L65.83 8.11C65.23 7.41 64.34 6.99 63.32 6.99C61.38 6.99 59.95 8.48 59.95 10.56C59.95 12.63 61.38 14.13 63.32 14.13C64.34 14.13 65.23 13.71 65.83 13.01L65.83 14L67.26 14L67.26 7.11ZM63.62 12.88C62.34 12.88 61.42 11.91 61.42 10.56C61.42 9.21 62.34 8.23 63.62 8.23C64.90 8.23 65.83 9.21 65.83 10.56C65.83 11.91 64.90 12.88 63.62 12.88ZM75.07 7.11L73.37 7.11L70.45 10.19L70.45 4.31L69.02 4.31L69.02 14L70.45 14L70.45 10.65L73.37 14L75.07 14L71.89 10.40ZM81.35 7.11L81.35 8.11C80.75 7.41 79.87 6.99 78.85 6.99C76.90 6.99 75.47 8.48 75.47 10.56C75.47 12.63 76.90 14.13 78.85 14.13C79.87 14.13 80.75 13.71 81.35 13.01L81.35 14L82.78 14L82.78 7.11ZM79.14 12.88C77.87 12.88 76.94 11.91 76.94 10.56C76.94 9.21 77.87 8.23 79.14 8.23C80.43 8.23 81.35 9.21 81.35 10.56C81.35 11.91 80.43 12.88 79.14 12.88ZM89.60 7.11L87.47 11.80L85.32 7.11L83.79 7.11L86.80 13.23L85.01 16.76L86.52 16.76L91.10 7.11Z"></path></g><!----><!----></svg>